<svg width="33" height="28" viewBox="0 0 33 28" fill="none" xmlns="http://www.w3.org/2000/svg">
<path d="M30 14.5H31C31.5523 14.5 32 14.9477 32 15.5V18.5C32 19.0523 31.5523 19.5 31 19.5H30M30 14.5H27.5C26.9477 14.5 26.5 14.9477 26.5 15.5V18.5C26.5 19.0523 26.9477 19.5 27.5 19.5H30M30 14.5V10C30 8.89543 29.1046 8 28 8H3C1.89543 8 1 8.89543 1 10V25C1 26.1046 1.89543 27 3 27H28C29.1046 27 30 26.1046 30 25V19.5M24 8V4.79009C24 3.77099 23.2337 2.91486 22.2209 2.80232L8.22086 1.24676C7.03613 1.11513 6 2.04251 6 3.23453V8H24Z" stroke="#A5A5A5" stroke-width="2"/>
</svg>
